<svg width="13" height="16" viewBox="0 0 13 16" fill="none" xmlns="http://www.w3.org/2000/svg">
<path d="M1.61929 9.49805C1.43901 9.32115 1.19585 9.2231 0.943285 9.22548C0.690723 9.22787 0.449451 9.33048 0.272547 9.51076C0.0956438 9.69103 -0.00240093 9.93419 -1.7941e-05 10.1868C0.00236505 10.4393 0.104981 10.6806 0.285254 10.8575C0.48937 11.0591 0.72254 11.3276 0.943414 11.5878C1.82892 12.6303 2.63931 13.726 3.64379 14.841C3.6447 14.842 3.64562 14.843 3.64653 14.844C3.73648 14.9126 3.7829 15.0802 4.2841 15.2256C4.53958 15.288 4.84706 15.2156 4.9992 15.1307C5.16393 15.0443 5.23921 14.9706 5.30579 14.9076C5.53031 14.6722 5.57673 14.5611 5.66004 14.4308C5.80382 14.1866 5.91252 13.9718 6.02236 13.757C6.24053 13.3265 6.44513 12.9083 6.65646 12.4852C6.65916 12.4798 6.66187 12.4743 6.66458 12.4689C8.11198 9.57672 9.57962 6.67715 11.0605 3.8059C11.0611 3.80469 11.0617 3.80348 11.0624 3.80227C11.4469 3.06526 11.8551 2.28014 12.2378 1.63891C12.2931 1.54878 12.3236 1.51431 12.3 1.54196C12.3001 1.54185 12.3003 1.54175 12.3004 1.54164C12.3724 1.47049 12.4534 1.11595 12.3432 0.595963C12.3307 0.537416 12.3184 0.48095 12.3093 0.439169C12.2997 0.396774 12.2911 0.368946 12.274 0.346821C12.2568 0.324696 12.232 0.309519 12.1933 0.289643C12.1551 0.270382 12.1035 0.244458 12.0499 0.217758C11.5712 -0.0108705 11.2641 -0.0989511 10.9913 0.149335C10.991 0.149622 10.9907 0.14991 10.9904 0.150198C10.7856 0.343096 10.687 0.519506 10.6128 0.635154C10.1355 1.4468 9.78442 2.17376 9.38606 2.93447C9.38543 2.93568 9.3848 2.9369 9.38417 2.93812C7.89436 5.82678 6.42871 8.72001 4.97388 11.6251C4.97115 11.6306 4.96843 11.636 4.96571 11.6415C4.75414 12.0647 4.54459 12.4841 4.33431 12.8909C4.23092 13.09 4.12256 13.2959 4.02725 13.4546C3.98739 13.5267 3.91298 13.6155 3.97162 13.5491C3.99449 13.5287 4.02632 13.4913 4.1378 13.4323C4.23827 13.3742 4.48521 13.314 4.6829 13.3633C5.06781 13.4809 5.02892 13.5588 5.0377 13.543C5.03699 13.5423 5.03628 13.5415 5.03557 13.5408C4.17316 12.586 3.315 11.4405 2.39667 10.3566C2.15706 10.0757 1.91937 9.79614 1.61929 9.49805Z" fill="black"/>
</svg>
